<svg width="40" height="45" viewBox="0 0 40 45" fill="none" xmlns="http://www.w3.org/2000/svg">
<g clip-path="url(#clip0_221_106)">
<path d="M15.625 37.9688C15.625 38.6641 15.4417 39.3438 15.0983 39.9219C14.755 40.5001 14.2669 40.9507 13.6959 41.2168C13.1249 41.4829 12.4965 41.5525 11.8903 41.4168C11.2842 41.2812 10.7273 40.9463 10.2903 40.4547C9.85325 39.963 9.55562 39.3366 9.43505 38.6546C9.31447 37.9726 9.37635 37.2658 9.61287 36.6234C9.8494 35.981 10.2499 35.4319 10.7638 35.0456C11.2777 34.6593 11.8819 34.4531 12.5 34.4531C13.3288 34.4531 14.1237 34.8235 14.7097 35.4828C15.2958 36.1421 15.625 37.0363 15.625 37.9688ZM28.75 34.4531C28.1319 34.4531 27.5277 34.6593 27.0138 35.0456C26.4999 35.4319 26.0994 35.981 25.8629 36.6234C25.6264 37.2658 25.5645 37.9726 25.685 38.6546C25.8056 39.3366 26.1033 39.963 26.5403 40.4547C26.9773 40.9463 27.5341 41.2812 28.1403 41.4168C28.7465 41.5525 29.3749 41.4829 29.9459 41.2168C30.5169 40.9507 31.005 40.5001 31.3483 39.9219C31.6917 39.3438 31.875 38.6641 31.875 37.9688C31.875 37.0363 31.5458 36.1421 30.9597 35.4828C30.3737 34.8235 29.5788 34.4531 28.75 34.4531ZM36.7922 13.2768L32.5281 28.8686C32.2559 29.8769 31.7019 30.7596 30.9484 31.3856C30.1949 32.0116 29.282 32.3476 28.3453 32.3438H12.9578C12.0077 32.3403 11.0841 31.9905 10.3255 31.3469C9.56691 30.7033 9.01413 29.8004 8.75 28.7736L3.40781 7.73438H1.875C1.37772 7.73438 0.900805 7.51214 0.549175 7.11655C0.197544 6.72097 0 6.18444 0 5.625C0 5.06556 0.197544 4.52903 0.549175 4.13345C0.900805 3.73786 1.37772 3.51563 1.875 3.51562H3.87812C4.55679 3.51798 5.21647 3.76784 5.75822 4.22771C6.29996 4.68758 6.69456 5.33267 6.88281 6.06621L8.02187 10.5469H35C35.2934 10.5468 35.5828 10.6243 35.8448 10.773C36.1067 10.9217 36.334 11.1375 36.5084 11.4031C36.6827 11.6686 36.7992 11.9765 36.8485 12.3019C36.8978 12.6273 36.8785 12.9612 36.7922 13.2768ZM32.4609 14.7656H9.09219L12.3562 27.6152C12.3936 27.7622 12.4726 27.8915 12.5811 27.9835C12.6897 28.0755 12.8219 28.1252 12.9578 28.125H28.3453C28.4791 28.1253 28.6094 28.0773 28.7171 27.9881C28.8249 27.8988 28.9043 27.7731 28.9437 27.6293L32.4609 14.7656Z" fill="black"/>
</g>
<defs>
<clipPath id="clip0_221_106">
<rect width="40" height="45" fill="white"/>
</clipPath>
</defs>
</svg>
